<svg xmlns="http://www.w3.org/2000/svg" width="1600" height="900" viewBox="0 0 1600 900" role="img" aria-labelledby="title desc">
  <title id="title">NexaFlow monochrome logo</title>
  <desc id="desc">Minimal black, white, and grey NexaFlow logo with an abstract N and flow line.</desc>
  <defs>
    <linearGradient id="metal" x1="0" x2="1" y1="0" y2="1">
      <stop offset="0" stop-color="#ffffff"/>
      <stop offset="0.52" stop-color="#d7d7d7"/>
      <stop offset="1" stop-color="#7c7c7c"/>
    </linearGradient>
    <linearGradient id="line" x1="0" x2="1" y1="0" y2="0">
      <stop offset="0" stop-color="#f8f8f8"/>
      <stop offset="1" stop-color="#8e8e8e"/>
    </linearGradient>
    <filter id="softGlow" x="-40%" y="-40%" width="180%" height="180%">
      <feGaussianBlur stdDeviation="8" result="blur"/>
      <feColorMatrix in="blur" type="matrix" values="1 0 0 0 1  0 1 0 0 1  0 0 1 0 1  0 0 0 .28 0"/>
      <feBlend in="SourceGraphic"/>
    </filter>
  </defs>

  <rect width="1600" height="900" fill="#030303"/>
  <circle cx="800" cy="444" r="330" fill="none" stroke="#141414" stroke-width="1"/>
  <circle cx="800" cy="444" r="230" fill="none" stroke="#101010" stroke-width="1"/>

  <g transform="translate(270 250)" filter="url(#softGlow)">
    <g transform="scale(1.05)">
      <path d="M0 320V0h84v174L256 0h96v320h-84V116L84 320H0Z" fill="url(#metal)"/>
      <path d="M26 226c76-22 137-68 189-139 45-61 83-86 137-87" fill="none" stroke="#ffffff" stroke-width="34" stroke-linecap="round"/>
      <path d="M26 226c76-22 137-68 189-139 45-61 83-86 137-87" fill="none" stroke="#3a3a3a" stroke-width="10" stroke-linecap="round"/>
    </g>
    <g transform="translate(460 52)">
      <text x="0" y="116" fill="url(#metal)" font-family="Inter, Segoe UI, Arial, sans-serif" font-size="126" font-weight="800" letter-spacing="0">NexaFlow</text>
      <rect x="4" y="176" width="476" height="2" fill="url(#line)" opacity=".72"/>
      <text x="4" y="232" fill="#9d9d9d" font-family="Inter, Segoe UI, Arial, sans-serif" font-size="36" font-weight="600" letter-spacing="9">AI BUSINESS OS</text>
    </g>
  </g>
</svg>
